<?xml version="1.0" standalone="no"?>
<!DOCTYPE svg PUBLIC "-//W3C//DTD SVG 20010904//EN"
 "http://www.w3.org/TR/2001/REC-SVG-20010904/DTD/svg10.dtd">
<svg version="1.0" xmlns="http://www.w3.org/2000/svg"
 width="147.000000pt" height="344.000000pt" viewBox="0 0 147.000000 344.000000"
 preserveAspectRatio="xMidYMid meet">
<metadata>
Created by potrace 1.16, written by Peter Selinger 2001-2019
</metadata>
<g transform="translate(0.000000,344.000000) scale(0.100000,-0.100000)"
fill="#ffff" stroke="none">
<path d="M655 3368 c-72 -39 -93 -87 -97 -217 -3 -91 -1 -101 20 -123 17 -19
22 -36 22 -78 0 -51 -2 -56 -42 -92 -24 -21 -86 -65 -138 -97 -106 -65 -136
-100 -145 -169 -4 -26 -17 -67 -30 -92 -12 -25 -30 -83 -40 -130 -10 -47 -33
-116 -52 -154 -44 -87 -64 -154 -103 -341 -33 -155 -44 -335 -27 -417 10 -46
38 -65 61 -43 13 13 14 33 10 113 l-6 97 24 -28 c21 -25 25 -26 42 -14 18 14
18 15 -3 77 -11 35 -21 71 -21 79 0 8 36 90 81 183 45 93 83 188 87 211 3 23
8 44 13 47 4 3 23 43 42 89 l35 85 18 -55 c12 -40 18 -98 21 -221 3 -153 1
-184 -29 -355 -31 -183 -32 -197 -33 -488 0 -242 -4 -322 -19 -415 -14 -86
-17 -141 -12 -220 20 -336 20 -328 2 -374 -10 -26 -37 -62 -66 -89 -28 -26
-50 -51 -50 -56 0 -34 105 -43 182 -16 67 22 64 13 72 200 4 80 14 155 32 225
20 80 27 136 29 234 3 119 6 134 34 195 20 44 34 97 42 156 6 50 20 109 30
131 11 23 37 95 59 160 21 66 39 111 40 102 0 -24 68 -225 90 -268 10 -19 22
-77 28 -128 8 -66 20 -112 42 -160 29 -64 31 -77 34 -198 2 -98 9 -155 30
-239 17 -73 28 -150 32 -230 3 -66 7 -129 9 -140 6 -28 104 -61 165 -57 97 7
102 20 29 89 -28 26 -55 56 -61 66 -23 43 -26 125 -11 277 15 162 12 265 -12
400 -19 106 -21 142 -12 340 9 189 4 251 -38 515 -21 126 -26 193 -25 315 1
163 3 176 27 253 l15 49 34 -84 c18 -45 38 -84 44 -86 5 -2 10 -20 10 -40 0
-25 27 -92 86 -216 l87 -180 -22 -67 c-12 -36 -19 -74 -15 -83 9 -23 40 -20
59 7 16 21 16 16 10 -80 -6 -93 -6 -102 12 -111 45 -24 63 28 63 180 0 184
-65 489 -134 625 -18 38 -39 100 -45 138 -13 73 -41 147 -60 159 -6 4 -11 20
-11 35 0 36 -28 119 -52 154 -13 18 -63 49 -136 86 -65 32 -126 68 -136 80
-27 30 -36 139 -13 156 30 22 37 61 27 156 -10 101 -29 142 -80 176 -36 25
-119 31 -155 11z m142 -45 c33 -22 50 -71 56 -165 5 -79 4 -89 -13 -101 -23
-16 -36 -87 -26 -141 11 -57 57 -99 164 -151 53 -26 108 -57 121 -69 30 -27
57 -90 66 -153 4 -26 13 -55 20 -63 25 -30 36 -62 50 -139 8 -46 28 -107 48
-147 19 -38 41 -91 50 -119 21 -63 77 -346 77 -386 0 -27 -3 -30 -22 -23 -13
3 -24 7 -25 8 -1 1 3 19 9 39 10 33 8 43 -17 94 -120 243 -148 310 -147 351 0
29 -5 46 -17 55 -24 17 -83 169 -96 247 -9 57 -13 65 -34 68 -25 4 -44 -15
-36 -35 2 -7 -2 -13 -9 -13 -7 0 -19 -7 -27 -16 -11 -14 -13 -14 -21 0 -11 20
-47 21 -54 1 -4 -8 -1 -22 6 -30 19 -23 -41 -19 -101 6 -38 17 -53 19 -62 10
-30 -30 37 -73 126 -79 63 -5 110 10 132 41 27 39 30 -26 5 -134 -15 -68 -21
-124 -20 -181 2 -46 2 -104 1 -129 l-1 -46 -52 -12 c-125 -31 -454 -22 -475
13 -4 5 -8 78 -9 161 -2 108 -7 167 -20 210 -16 55 -21 112 -10 122 2 2 21 -7
41 -22 30 -20 50 -25 99 -25 95 1 181 49 147 83 -8 8 -20 6 -47 -6 -20 -10
-56 -20 -81 -24 -43 -6 -45 -5 -34 14 8 16 7 24 -4 33 -18 15 -45 6 -45 -15 0
-21 -13 -19 -28 5 -7 11 -19 20 -26 20 -8 0 -16 10 -18 22 -3 24 -34 36 -49
21 -5 -5 -14 -38 -20 -72 -12 -77 -63 -211 -89 -233 -14 -11 -20 -29 -20 -59
0 -32 -19 -81 -76 -203 -43 -89 -81 -167 -87 -174 -10 -12 -5 -72 9 -106 5
-13 4 -17 -3 -13 -16 10 -41 -2 -47 -21 -13 -44 8 116 30 223 38 182 62 264
100 334 20 37 41 95 50 140 17 86 33 131 50 146 6 6 14 32 18 60 13 100 19
108 163 201 73 48 140 98 149 112 9 14 19 53 21 86 4 54 2 66 -21 99 -24 35
-25 43 -20 115 10 130 30 167 96 181 40 8 75 3 105 -16z m229 -1575 l19 -123
-80 -12 c-44 -6 -91 -15 -104 -19 -17 -5 -22 -4 -17 5 12 18 -4 51 -24 51 -19
0 -30 -19 -30 -54 0 -26 -35 -76 -53 -76 -21 0 -57 44 -57 70 0 14 -6 35 -14
45 -18 25 -46 13 -46 -21 0 -21 -4 -25 -17 -19 -10 3 -55 11 -100 18 -76 10
-82 12 -78 31 3 12 11 63 19 114 7 51 16 95 19 98 3 3 32 0 64 -7 76 -16 330
-14 408 4 33 8 63 15 66 16 3 0 15 -54 25 -121z m-449 -205 c28 -8 66 -27 83
-42 l32 -27 -17 -62 c-14 -48 -22 -62 -37 -62 -25 0 -34 -28 -48 -146 -18
-163 -30 -216 -63 -289 -38 -86 -34 -80 -50 -67 -8 7 -16 9 -20 6 -3 -3 -16 2
-29 10 -14 9 -28 13 -31 9 -4 -3 -4 16 0 43 8 50 9 151 3 379 -2 72 0 162 4
202 l8 71 56 -5 c32 -2 80 -11 109 -20z m480 15 c4 -7 8 -157 8 -333 0 -176 5
-329 10 -339 7 -16 5 -18 -8 -13 -8 3 -21 -1 -28 -9 -6 -8 -17 -13 -23 -11 -6
3 -18 1 -26 -4 -13 -6 -23 9 -52 74 -31 70 -39 103 -52 222 -20 175 -26 199
-54 203 -16 3 -25 16 -37 54 -19 67 -19 71 8 96 33 31 92 53 167 62 36 4 68 8
72 9 4 0 10 -5 15 -11z m-610 -758 c12 0 25 5 29 11 21 34 32 -89 18 -194 -10
-73 -26 -43 -22 42 3 68 1 76 -16 79 -28 6 -36 -15 -36 -104 0 -84 11 -111 42
-99 13 5 13 -6 -3 -82 -11 -48 -22 -145 -26 -215 -4 -96 -9 -128 -19 -128 -7
0 -29 -7 -48 -16 -21 -11 -44 -14 -61 -10 l-27 7 45 48 c64 69 74 119 59 304
-13 154 -15 290 -6 349 6 36 7 37 27 23 12 -8 31 -15 44 -15z m649 -57 c4 -51
2 -147 -5 -228 -21 -262 -14 -310 57 -380 l44 -44 -34 -6 c-21 -4 -44 -1 -63
9 -17 9 -35 16 -41 16 -7 0 -13 43 -17 119 -6 101 -18 183 -42 289 -5 20 -3
23 14 17 29 -9 41 22 41 108 0 77 -13 106 -44 94 -12 -5 -14 -17 -9 -56 5 -47
-3 -128 -13 -118 -10 9 -22 212 -14 227 6 11 19 15 42 12 23 -2 39 2 47 12 8
9 17 16 21 16 5 0 12 -39 16 -87z"/>
</g>
</svg>
